<?xml version="1.0" encoding="UTF-8"?>
<svg version="1.1" xmlns="http://www.w3.org/2000/svg" width="512" height="512">
<path d="M0 0 C0.9178125 0.18224121 1.835625 0.36448242 2.78125 0.55224609 C9.23280257 1.86381342 15.62290118 3.36644516 22 5 C22.74411133 5.18788086 23.48822266 5.37576172 24.25488281 5.56933594 C42.65908008 10.30763546 60.28462264 18.02857176 77 27 C77.58652344 27.31259766 78.17304688 27.62519531 78.77734375 27.94726562 C99.97866723 39.35065008 118.67979977 54.37866461 136 71 C136.89460938 71.85335937 137.78921875 72.70671875 138.7109375 73.5859375 C144.63261161 79.36184732 149.89360255 85.49855582 155 92 C155.79148437 92.98613281 156.58296875 93.97226563 157.3984375 94.98828125 C164.20670055 103.61136521 170.24718802 112.64304268 176 122 C176.59361328 122.96413818 176.59361328 122.96413818 177.19921875 123.94775391 C200.68032594 162.60542996 211.4880365 207.68669302 211.3125 252.625 C211.30976578 254.07933441 211.30976578 254.07933441 211.30697632 255.56304932 C211.26163492 269.89240966 210.85197455 283.91239418 208 298 C207.81775879 298.9178125 207.63551758 299.835625 207.44775391 300.78125 C206.13618658 307.23280257 204.63355484 313.62290118 203 320 C202.81211914 320.74411133 202.62423828 321.48822266 202.43066406 322.25488281 C189.49999017 372.47937195 157.54514046 419.85991473 117 452 C115.92761957 452.87406123 114.85602952 453.7490929 113.78515625 454.625 C73.33762358 487.44746728 19.65434281 508.92763564 -32.79296875 509.203125 C-33.69337387 509.21018463 -34.59377899 509.21724426 -35.52146912 509.22451782 C-73.06566405 509.45209392 -73.06566405 509.45209392 -90 506 C-91.53914063 505.69400879 -91.53914063 505.69400879 -93.109375 505.38183594 C-114.65689094 500.99701857 -135.21350459 494.62135705 -155 485 C-155.89477051 484.56558594 -156.78954102 484.13117188 -157.71142578 483.68359375 C-183.32102133 471.10436365 -205.45709929 454.71400089 -226 435 C-226.89460938 434.14664062 -227.78921875 433.29328125 -228.7109375 432.4140625 C-234.63261161 426.63815268 -239.89360255 420.50144418 -245 414 C-245.79148438 413.01386719 -246.58296875 412.02773438 -247.3984375 411.01171875 C-254.20670055 402.38863479 -260.24718802 393.35695732 -266 384 C-266.39574219 383.35724121 -266.79148437 382.71448242 -267.19921875 382.05224609 C-287.97922644 347.84147405 -300.99234812 305.38139429 -301.203125 265.20703125 C-301.21013931 264.30644485 -301.21715363 263.40585846 -301.22438049 262.47798157 C-301.24177809 259.58943619 -301.24823227 256.70109584 -301.25 253.8125 C-301.25101212 252.33194122 -301.25101212 252.33194122 -301.25204468 250.82147217 C-301.23631228 236.35031441 -300.87100014 222.23005389 -298 208 C-297.82307617 207.09813965 -297.64615234 206.1962793 -297.46386719 205.26708984 C-293.24747978 184.2543336 -286.99043367 164.45438684 -278 145 C-277.50113281 143.9174292 -277.50113281 143.9174292 -276.9921875 142.81298828 C-266.95259718 121.30030923 -253.63225753 101.80045047 -238 84 C-237.24976563 83.13761719 -236.49953125 82.27523437 -235.7265625 81.38671875 C-226.5673724 71.02063176 -216.91531227 61.51484941 -206 53 C-205.01644531 52.21109375 -204.03289062 51.4221875 -203.01953125 50.609375 C-194.42081954 43.77287174 -185.35396507 37.75097229 -176 32 C-175.35724121 31.60425781 -174.71448242 31.20851562 -174.05224609 30.80078125 C-148.25060067 15.12857164 -119.45627251 5.8560994 -90 0 C-88.6696875 -0.27118652 -88.6696875 -0.27118652 -87.3125 -0.54785156 C-59.84272777 -5.87859826 -27.39627653 -5.54625707 0 0 Z " fill="#000000" transform="translate(301,3)"/>
<path d="M0 0 C0.70065066 -0.00205263 1.40130132 -0.00410527 2.12318382 -0.0062201 C4.48862487 -0.01190834 6.85400804 -0.01043061 9.21945477 -0.00901413 C10.92543581 -0.01159672 12.63141625 -0.01460958 14.33739585 -0.01801753 C19.0392887 -0.02610322 23.7411663 -0.02787797 28.44306529 -0.028615 C33.50861849 -0.03046282 38.57416372 -0.03800875 43.63971233 -0.04475021 C54.72222765 -0.05834493 65.80473936 -0.06435995 76.88726163 -0.06876087 C83.803634 -0.07152122 90.72000496 -0.07575818 97.63637638 -0.08026505 C116.77566248 -0.09245892 135.91494746 -0.10275818 155.05423737 -0.10614014 C156.89245185 -0.10646949 156.89245185 -0.10646949 158.76780198 -0.10680549 C159.99625339 -0.10702377 161.2247048 -0.10724204 162.49038202 -0.10746694 C164.97980011 -0.10791041 167.4692182 -0.10835697 169.95863628 -0.10880661 C171.19348043 -0.10902804 172.42832458 -0.10924947 173.70058825 -0.10947761 C193.71672685 -0.11342698 213.73282907 -0.13088472 233.74895362 -0.15416613 C254.28592439 -0.17786109 274.82287689 -0.19034113 295.35986155 -0.19150805 C306.89600396 -0.19242583 318.43209897 -0.19820395 329.96822834 -0.21632767 C339.79011961 -0.23170359 349.61194884 -0.23686395 359.43384985 -0.22858956 C364.44719543 -0.22467423 369.46041598 -0.22565564 374.4737463 -0.23964691 C379.06121234 -0.25233287 383.6484587 -0.25123521 388.23592421 -0.2390562 C389.89743978 -0.23708997 391.55897063 -0.24022009 393.22046468 -0.24890056 C395.4760868 -0.25994099 397.73092649 -0.25254233 399.98652649 -0.24050903 C401.24025568 -0.24110612 402.49398488 -0.24170321 403.78570586 -0.24231839 C409.18287561 0.35161033 413.08043998 2.43514003 416.49452496 6.63142776 C416.98565777 7.21924026 417.47679058 7.80705276 417.98280621 8.41267776 C420.59633877 12.15845734 420.47670895 15.71116783 420.18202496 20.13142776 C418.37898872 26.17690221 415.30611719 29.66101984 410.18202496 33.13142776 C406.88532463 34.23032787 404.45593849 34.25887059 400.98396587 34.26272964 C399.03666325 34.26874191 399.03666325 34.26874191 397.05002117 34.27487564 C395.60801981 34.27440054 394.16601846 34.27386443 392.72401714 34.27327347 C391.20785705 34.27630506 389.69169788 34.27982652 388.17553997 34.28380203 C384.90816681 34.29169206 381.64080457 34.29683637 378.37342358 34.3000927 C373.20446717 34.30600304 368.03557962 34.32254412 362.8666563 34.34143448 C361.09686188 34.34777195 359.32706742 34.35409757 357.55727291 34.36041164 C356.6709142 34.36357746 355.78455548 34.36674327 354.87133741 34.37000501 C342.8370541 34.41207469 330.80280268 34.44505191 318.76845074 34.4573555 C310.65179581 34.46573902 302.53531119 34.48824104 294.41874146 34.52671117 C290.12436144 34.54646319 285.83023596 34.5588793 281.53580761 34.55387688 C277.49405274 34.5492262 273.45278002 34.56305838 269.41112232 34.59088898 C267.93052344 34.59779391 266.44987463 34.59793479 264.96927738 34.59068871 C254.27748055 34.32638834 254.27748055 34.32638834 245.18202496 39.13142776 C241.82514096 44.32128058 241.75929379 48.71941636 241.81021404 54.6893959 C241.80638948 55.64513475 241.80256492 56.60087359 241.79862446 57.58557421 C241.78934701 60.78452017 241.80132632 63.98303248 241.81312847 67.18196487 C241.81066033 69.47688349 241.80682178 71.77180098 241.8017149 74.06671524 C241.79337711 79.00708075 241.79418435 83.94733099 241.80189991 88.88769722 C241.81347772 96.69910267 241.80132472 104.51035967 241.78528118 112.32175064 C241.76484727 123.2728792 241.751974 134.22398165 241.74818707 145.17512894 C241.7479422 145.86970361 241.74769733 146.56427829 241.74744504 147.27990068 C241.74489916 155.02893297 241.74433238 162.77796401 241.74537945 170.52699661 C241.74571248 173.33711624 241.74599787 176.14723586 241.74623394 178.9573555 C241.74632812 179.9974897 241.74632812 179.9974897 241.74642421 181.05863672 C241.74702931 192.62683636 241.73193971 204.19494882 241.70540088 215.7631188 C241.68859209 223.52872615 241.69041451 231.29403835 241.70622361 239.05964458 C241.71201579 243.89031705 241.70128893 248.72084921 241.68597698 253.55149651 C241.68224716 255.79162783 241.68536914 258.03178262 241.69584751 260.27189255 C241.70920102 263.33044233 241.69802282 266.38796748 241.68081951 269.44647598 C241.69552968 270.77547492 241.69552968 270.77547492 241.71053702 272.13132232 C241.6428771 277.94984523 240.56069763 281.35673006 237.18202496 286.13142776 C233.64181084 288.76600571 230.92970652 289.36054041 226.61952496 289.13142776 C222.12194766 288.44240498 219.98403381 286.78253021 217.18202496 283.13142776 C215.08544603 279.75178725 214.93171354 277.1028368 214.93046856 273.15478897 C214.92508572 271.93093994 214.91970287 270.70709091 214.91415691 269.44615555 C214.91817101 268.09279205 214.92234193 266.73942902 214.92665386 265.38606644 C214.92390332 263.95842667 214.92022303 262.53078843 214.91568279 261.10315323 C214.90757391 258.03003433 214.90540157 254.95698819 214.90762997 251.88385963 C214.91046427 247.02144178 214.89610621 242.1591691 214.87864971 237.29678726 C214.83163557 223.4704494 214.807686 209.6441213 214.80116558 195.81770706 C214.79741189 188.1804523 214.77935723 180.54336173 214.74607122 172.90617734 C214.72587959 168.07591101 214.72347595 163.24606881 214.7343514 158.41577756 C214.73696395 155.40528824 214.72292797 152.39504432 214.70427036 149.38461876 C214.69896099 147.9927027 214.70042373 146.60074108 214.70930576 145.20884323 C214.81159394 134.95074976 214.81159394 134.95074976 210.18202496 126.13142776 C205.8071392 123.04912189 201.43694692 122.22855507 196.18202496 123.13142776 C192.27718698 124.50823318 189.694372 126.28773716 187.50604439 129.89129353 C186.1020253 133.32720255 185.80817606 135.65700462 185.81021404 139.34857559 C185.80345654 140.57517395 185.79669903 141.80177231 185.78973675 143.06554031 C185.79728885 144.41164156 185.80509454 145.75774141 185.81312847 147.10383987 C185.81065858 148.53177555 185.80681826 149.9597094 185.8017149 151.38763809 C185.7933944 154.45530563 185.79416951 157.52278741 185.80189991 160.59045601 C185.81350813 165.44465939 185.80129934 170.29862511 185.78528118 175.15280533 C185.74913048 187.20867364 185.74285618 199.26453604 185.74537945 211.32045364 C185.74709171 220.69305848 185.73994198 230.06546849 185.70540088 239.43801886 C185.68863189 244.25994968 185.69037962 249.0814048 185.70622361 253.90333354 C185.71203192 256.90725172 185.70126034 259.91094566 185.68597698 262.91482353 C185.68225963 264.30352421 185.68533318 265.69226295 185.69584751 267.0809288 C185.7886476 280.21662547 185.7886476 280.21662547 181.18202496 286.13142776 C177.64181084 288.76600571 174.92970652 289.36054041 170.61952496 289.13142776 C166.12194766 288.44240498 163.98403381 286.78253021 161.18202496 283.13142776 C159.53184795 280.30018044 158.93199496 278.27304988 158.93148518 275.00432491 C158.92648648 274.18556305 158.92148778 273.36680118 158.91633761 272.52322835 C158.92100082 271.62917265 158.92566404 270.73511695 158.93046856 269.81396866 C158.92749842 268.85993867 158.92452828 267.90590868 158.92146814 266.92296869 C158.91381382 263.71789899 158.92032809 260.51301177 158.92665386 257.30794144 C158.92390464 255.01331838 158.92022516 252.71869628 158.91568279 250.42407608 C158.90756295 245.47824379 158.90540432 240.53245673 158.90762997 235.58661842 C158.91045891 227.76698856 158.8961266 219.94744937 158.87864971 212.12784195 C158.85544582 201.16476688 158.83633206 190.20169806 158.82362652 179.2386055 C158.82281615 178.54289982 158.82200578 177.84719414 158.82117085 177.13040648 C158.80995272 167.26053963 158.804669 157.39067842 158.80178373 147.52080605 C158.80157974 146.82600995 158.80137575 146.13121384 158.80116558 145.41536331 C158.80096564 144.72141506 158.80076571 144.02746681 158.80055971 143.31248983 C158.79682513 131.73530577 158.77749735 120.15822051 158.74607122 108.5810774 C158.72583406 100.80712447 158.72349853 93.03343511 158.7343514 85.25946653 C158.73695664 80.42222842 158.72296332 75.58514407 158.70427036 70.74794579 C158.69894324 68.50459605 158.70045399 66.26121808 158.70930576 64.01787949 C158.72041706 60.95483054 158.70700598 57.89282309 158.68754864 54.8298378 C158.69667329 53.94247427 158.70579795 53.05511073 158.71519911 52.1408574 C158.6433519 46.32661014 157.73792132 42.80708567 154.18202496 38.13142776 C149.97521894 35.29616626 146.63013903 34.75604988 141.6164732 34.75288773 C139.66081684 34.74058372 139.66081684 34.74058372 137.66565228 34.72803116 C136.23295772 34.73398881 134.80026423 34.74020786 133.36757183 34.74666214 C131.84934361 34.74255431 130.33111854 34.73709218 128.81289959 34.73038101 C125.55043854 34.71867584 122.28814657 34.71616452 119.02566814 34.72073746 C113.86509374 34.72755664 108.70474119 34.71166323 103.54420757 34.69234085 C92.59015862 34.65451213 81.63612921 34.64168781 70.68202496 34.63142776 C58.85550638 34.62035059 47.02909019 34.6049965 35.20264196 34.5607152 C30.07443413 34.5423704 24.9464806 34.53846236 19.8182478 34.54565048 C16.62648954 34.54717357 13.43485826 34.53638088 10.2431345 34.52227211 C8.76532692 34.51827364 7.28749514 34.51938736 5.80969715 34.52604485 C3.7890007 34.53444761 1.76825064 34.52268086 -0.25242329 34.5099678 C-1.38212292 34.50925529 -2.51182255 34.50854279 -3.6757555 34.50780869 C-8.89412597 33.88274253 -12.79823298 31.72674902 -16.13047504 27.69392776 C-16.62160786 27.11771683 -17.11274067 26.54150589 -17.61875629 25.94783401 C-20.23269608 21.98860926 -20.13751569 17.76476713 -19.81797504 13.13142776 C-17.93206874 7.69558018 -14.44999825 4.36331668 -9.81797504 1.13142776 C-6.34912489 -0.02485562 -3.66147309 0.00364177 0 0 Z " fill="#FEFEFE" transform="translate(55.81797504425049,190.86857223510742)"/>
<path d="M0 0 C0.95270379 33.23877668 -4.78259739 65.41132952 -18 96 C-18.34788574 96.80727539 -18.69577148 97.61455078 -19.05419922 98.44628906 C-23.08914785 107.66111453 -27.66660585 116.45556172 -32.875 125.0625 C-33.571698 126.21528442 -33.571698 126.21528442 -34.2824707 127.39135742 C-36.38423527 130.76717499 -37.62269496 132.74846331 -41 135 C-41.45407478 134.40179097 -41.90814957 133.80358194 -42.37598419 133.18724537 C-47.66374991 126.38277833 -53.46492758 120.33658086 -59.63867188 114.34057617 C-60.68472238 113.31643242 -61.73020761 112.29171105 -62.775177 111.26646423 C-65.00659811 109.07827853 -67.24069175 106.8928717 -69.47660828 104.70928001 C-73.01620384 101.24994836 -76.54170838 97.77648782 -80.06408691 94.29963684 C-80.66131986 93.71022959 -81.25855281 93.12082235 -81.87388372 92.51355428 C-83.09388994 91.30945326 -84.31385768 90.10531327 -85.53378773 88.90113509 C-93.72053887 80.82091903 -101.91551117 72.74967443 -110.15136719 64.71948242 C-115.72787461 59.28202216 -121.28081857 53.82167895 -126.80786943 48.33394033 C-129.7263933 45.43800484 -132.65543124 42.55491929 -135.61375427 39.69960594 C-138.39361157 37.01619815 -141.14124119 34.30353877 -143.86779404 31.56601906 C-144.86913407 30.5714119 -145.88155864 29.58781316 -146.90587234 28.61688232 C-154.62654928 21.28057356 -154.62654928 21.28057356 -155.58576965 15.42284584 C-155.59858623 12.21798873 -155.43623369 9.17249652 -155 6 C-153.94976969 5.99641747 -153.94976969 5.99641747 -152.8783226 5.99276257 C-135.79973035 5.93348805 -118.72128776 5.85785892 -101.64284897 5.76428509 C-93.38365713 5.7194221 -85.1245075 5.67998584 -76.86523438 5.65356445 C-69.66194564 5.63050713 -62.45879154 5.59702359 -55.25560975 5.55129844 C-51.44565258 5.52746989 -47.63582788 5.50867353 -43.82579803 5.50238609 C-40.23060766 5.49628785 -36.6357558 5.47612001 -33.04069138 5.44572449 C-31.11073511 5.4329074 -29.18069945 5.43450116 -27.2507019 5.4367218 C-17.93176637 5.33750535 -8.39065124 0 0 0 Z " fill="#FEFEFE" transform="translate(482,249)"/>
<path d="M0 0 C0.91395822 0.35328715 1.82791643 0.70657431 2.76957035 1.07056713 C11.83981711 4.42696734 19.81003528 5.72638805 29.55444336 5.65942383 C30.93596323 5.66790664 32.31747115 5.67856409 33.69895935 5.69119263 C37.39647177 5.71898905 41.09339726 5.7169307 44.79098201 5.70889878 C48.67474957 5.70574372 52.55833974 5.73089485 56.44203186 5.75285339 C63.77267091 5.79009745 71.10312454 5.80242965 78.43384892 5.8054778 C86.78962791 5.81019012 95.14522361 5.8431826 103.50092113 5.87837565 C120.66726739 5.95005346 137.83351111 5.98678564 155 6 C155.8161586 11.7157978 156.29136275 16.81630674 153.27289772 21.92052841 C150.68066611 24.90140644 147.93450465 27.6538644 145.07348633 30.37060547 C144.00491388 31.43222533 142.93922109 32.49675033 141.87619019 33.56391907 C138.99707191 36.4382483 136.07996017 39.2709461 133.15438676 42.0978713 C130.09117311 45.0719307 127.06590413 48.08409298 124.0365448 51.09255981 C118.29496703 56.78350276 112.52194435 62.44135722 106.73600644 68.08715737 C98.25350804 76.36713333 89.82004874 84.69682123 81.38556194 93.02565193 C80.13773389 94.25769304 78.88988459 95.48971264 77.64201355 96.72171021 C76.72775896 97.62448753 76.72775896 97.62448753 75.79503459 98.54550278 C72.18390596 102.10916552 68.56401943 105.66362448 64.93581259 109.2098968 C62.6756011 111.41994482 60.4192076 113.63386713 58.16329575 115.84830284 C57.12072621 116.86965745 56.07633644 117.88915804 55.02994728 118.90659904 C49.80898316 123.98403233 44.96925106 128.87535778 41 135 C36.14328039 130.7125662 33.26319112 125.74991728 30.125 120.125 C29.59688721 119.1860791 29.06877441 118.2471582 28.5246582 117.27978516 C24.29469464 109.68181777 20.3313515 102.04126349 17 94 C16.71318359 93.30825684 16.42636719 92.61651367 16.13085938 91.90380859 C8.32125617 72.69882032 3.63932087 52.53097207 1 32 C0.86851563 31.04996094 0.73703125 30.09992188 0.6015625 29.12109375 C-0.51385573 19.48930662 -0.08283386 9.68033868 0 0 Z " fill="#FEFEFE" transform="translate(30,249)"/>
<path d="M0 0 C0.56557617 0.48259277 1.13115234 0.96518555 1.71386719 1.46240234 C1.71386719 2.12240234 1.71386719 2.78240234 1.71386719 3.46240234 C0.35031128 4.58816528 0.35031128 4.58816528 -1.59912109 5.90820312 C-6.82201858 9.70369288 -11.26200659 14.21119962 -15.77505112 18.80099106 C-17.30880606 20.36058927 -18.84899994 21.91357449 -20.39089966 23.46511841 C-23.65335953 26.75024376 -26.9077845 30.04325669 -30.16113281 33.33740234 C-33.95422431 37.17772516 -37.7505551 41.01473057 -41.55533218 44.84347916 C-43.07397184 46.37509738 -44.58648005 47.9125996 -46.09884644 49.45040894 C-47.01384918 50.37201813 -47.92885193 51.29362732 -48.87158203 52.24316406 C-49.67796112 53.06001678 -50.48434021 53.87686951 -51.31515503 54.71847534 C-53.28613281 56.46240234 -53.28613281 56.46240234 -55.28613281 56.46240234 C-55.42148437 55.75857422 -55.55683594 55.05474609 -55.69628906 54.32958984 C-58.265258 42.54617542 -63.03885862 32.31313562 -71.28613281 23.46240234 C-71.28613281 22.80240234 -71.28613281 22.14240234 -71.28613281 21.46240234 C-71.88683594 21.18783203 -72.48753906 20.91326172 -73.10644531 20.63037109 C-75.28613281 19.46240234 -75.28613281 19.46240234 -78.16113281 16.77490234 C-89.93083937 6.5360105 -105.48687929 2.7581821 -120.78613281 3.18505859 C-135.71097471 4.36771906 -148.88298836 9.32808443 -159.61425781 19.95849609 C-161.28613281 21.46240234 -161.28613281 21.46240234 -163.28613281 21.46240234 C-163.5478125 22.02958984 -163.80949219 22.59677734 -164.07910156 23.18115234 C-165.38394491 25.64726405 -166.92276775 27.73287011 -168.59863281 29.96240234 C-174.31805 38.05299457 -177.50838727 46.76560846 -179.28613281 56.46240234 C-182.95070366 54.92138866 -185.27747017 52.71306541 -188.06713867 49.90844727 C-188.5278627 49.44801529 -188.98858673 48.98758331 -189.46327209 48.51319885 C-190.98063108 46.9944502 -192.49078365 45.46874285 -194.00097656 43.94287109 C-195.05901469 42.88109857 -196.1174984 41.8197699 -197.17640686 40.75886536 C-199.96215801 37.96548669 -202.74185798 35.16616136 -205.52032471 32.36553955 C-208.3364602 29.52901995 -211.1581867 26.69807496 -213.97949219 23.86669922 C-218.95398893 18.87307803 -223.92353206 13.87457361 -228.88951111 8.8724823 C-231.35039813 6.39777615 -233.81721134 3.92909069 -236.28613281 1.46240234 C-168.27928753 -43.34641672 -68.37873238 -45.98988216 0 0 Z " fill="#FEFEFE" transform="translate(373.2861328125,62.53759765625)"/>
<path d="M0 0 C5.32155498 4.44888465 10.29147883 9.13786945 15.19848633 14.03735352 C15.98633514 14.82023743 16.77418396 15.60312134 17.58590698 16.409729 C20.17071619 18.98002486 22.75169783 21.5541176 25.33203125 24.12890625 C27.13327472 25.92439334 28.93451883 27.71987978 30.73576355 29.5153656 C34.02104394 32.79150468 37.3049069 36.06905208 40.58713895 39.34824425 C45.40981912 44.16643153 50.23899439 48.9779828 55.07384855 53.78395325 C59.27442142 57.96030431 63.46672656 62.14488796 67.65607262 66.33250237 C69.43541143 68.10881257 71.21725337 69.88261903 73.00162697 71.65387154 C75.49102865 74.12625606 77.97083539 76.60788857 80.44848633 79.09204102 C81.18770828 79.82204819 81.92693024 80.55205536 82.68855286 81.30418396 C83.36273254 81.9839328 84.03691223 82.66368164 84.73152161 83.36402893 C85.31790814 83.94894891 85.90429468 84.53386889 86.50845051 85.13651371 C89.95098511 89.43748801 90.46484417 93.60780762 90 99 C88.2204546 104.96671106 85.18046137 108.68004841 80 112 C75.30840764 113.51224142 70.77048868 113.73986515 66.17745972 111.82049561 C62.60275073 109.77239977 59.59922975 107.34591126 56.53564453 104.62207031 C55.61288554 103.81161459 55.61288554 103.81161459 54.67148495 102.98478603 C46.667429 95.90734636 38.8553328 88.62434471 31.125 81.25 C30.01510775 80.19420305 30.01510775 80.19420305 28.88279343 79.11707687 C-3.03013301 48.59797805 -3.03013301 48.59797805 -4.39343262 29.01187134 C-4.463707 19.12688682 -2.84800528 9.44258063 0 0 Z " fill="#FEFEFE" transform="translate(327,311)"/>
<path d="M0 0 C4.59494267 14.92472724 7.35679652 32.52400191 0 47 C-8.31446055 60.19461503 -20.41838671 71.12274319 -31.625 81.8125 C-32.37809448 82.53349884 -33.13118896 83.25449768 -33.90710449 83.99734497 C-41.61819847 91.35848853 -49.44031228 98.60099595 -57.44384766 105.64379883 C-58.02070312 106.16131462 -58.59755859 106.67883041 -59.19189453 107.2120285 C-63.72667432 111.13689365 -67.5627754 112.78239066 -73.5 113.3125 C-80.17116408 112.71686035 -83.62427976 109.71639619 -87.80078125 104.81640625 C-90.41472103 100.8571815 -90.31954065 96.63333936 -90 92 C-87.72001295 85.87727886 -83.33173752 81.92232947 -78.78076172 77.42431641 C-77.94312286 76.58463318 -77.10548401 75.74494995 -76.24246216 74.87982178 C-73.95470254 72.58957689 -71.66041783 70.30613002 -69.36284781 68.02573442 C-66.95857732 65.63654285 -64.56245552 63.23920499 -62.16531372 60.84286499 C-58.14369631 56.8249331 -54.11649588 52.81266998 -50.08544922 48.80419922 C-44.90500357 43.65270704 -39.73392993 38.49191155 -34.5657177 33.3281498 C-30.12457632 28.89098096 -25.67918056 24.45808154 -21.23309183 20.0258708 C-19.80193651 18.5988194 -18.37137196 17.17117777 -16.94088364 15.74345779 C-14.28335746 13.09276393 -11.62247152 10.44549391 -8.96044922 7.79931641 C-7.76666656 6.60721054 -7.76666656 6.60721054 -6.54876709 5.39102173 C-5.82811066 4.67607544 -5.10745422 3.96112915 -4.36495972 3.22451782 C-3.73558439 2.59811716 -3.10620907 1.9717165 -2.45776176 1.326334 C-1 0 -1 0 0 0 Z " fill="#FEFEFE" transform="translate(185,311)"/>
<path d="M0 0 C7.82261024 5.74883102 13.66921266 12.83358759 15.515625 22.5234375 C16.62073387 32.60585048 14.52183143 40.46940199 8.765625 48.7734375 C2.6787098 56.32487365 -4.70212344 60.78005133 -14.37109375 61.83984375 C-23.91797124 62.21878511 -31.97995891 59.49285939 -39.484375 53.5234375 C-46.51906847 46.61246979 -50.54880696 38.79504676 -50.796875 28.8984375 C-50.69203558 19.32310343 -46.97548726 11.49426245 -40.484375 4.5234375 C-29.34445787 -5.86282773 -13.31179134 -7.91172504 0 0 Z " fill="#FDFDFD" transform="translate(273.484375,99.4765625)"/>
<path d="M0 0 C4.21363028 4.00531597 6.79191364 7.2948773 7.25 13.25 C6.33798357 26.93024642 -7.30945676 37.92729446 -16.25 47.4375 C-16.75195137 47.97412514 -17.25390274 48.51075027 -17.77106476 49.06363678 C-29.71639616 61.74540966 -40.48724249 72.24068536 -58.79748535 73.19963074 C-68.9725611 73.26042937 -79.04359439 72.02762926 -89 70 C-85.02945689 65.24953059 -80.89589561 60.74335311 -76.52319336 56.36206055 C-75.90612015 55.74002243 -75.28904694 55.11798431 -74.65327454 54.47709656 C-72.6348711 52.44422462 -70.6127156 50.41514374 -68.58984375 48.38671875 C-67.89550295 47.68955057 -67.20116215 46.99238239 -66.48578072 46.27408791 C-62.81931398 42.59269941 -59.15003438 38.91414309 -55.47827148 35.23803711 C-51.68972615 31.44398324 -47.91056429 27.64072329 -44.1334753 23.83526897 C-41.22086007 20.90404304 -38.30157117 17.97953393 -35.38040352 15.05683327 C-33.98367824 13.657083 -32.58945249 12.25483395 -31.19779778 10.85004234 C-29.25467366 8.88987339 -27.30231721 6.93937682 -25.34741211 4.9909668 C-24.77636749 4.4107074 -24.20532288 3.830448 -23.61697388 3.23260498 C-16.42016597 -3.88952525 -9.00341995 -5.07465488 0 0 Z " fill="#FEFEFE" transform="translate(410,91)"/>
<path d="M0 0 C3.51084224 2.0079065 6.18216555 4.85512076 8.99502373 7.72609329 C9.66904228 8.39792145 10.34306084 9.0697496 11.0375042 9.76193619 C13.24932007 11.97145175 15.44655894 14.19486889 17.64370537 16.41896439 C19.17989467 17.96007904 20.71689919 19.50038149 22.25468254 21.03990555 C25.46735189 24.26020069 28.67345961 27.48683384 31.87441826 30.71876907 C35.98751133 34.87158589 40.11143866 39.01342358 44.23959827 43.15125847 C48.16952178 47.09112576 52.0944485 51.03595408 56.01870537 54.98146439 C56.77212652 55.73828129 57.52554768 56.49509819 58.30179977 57.27484894 C60.41845168 59.40301172 62.53155823 61.53462536 64.64346123 63.66749954 C65.27766487 64.30439209 65.91186852 64.94128464 66.56529045 65.59747696 C70.86636162 69.9524966 70.86636162 69.9524966 70.86636162 71.06740189 C54.89694574 74.40506115 35.1590457 77.81120594 20.45547295 69.03047562 C11.930955 63.04188365 4.65100467 55.51717673 -2.44613838 47.94240189 C-2.96385433 47.39259029 -3.48157028 46.8427787 -4.01497459 46.27630615 C-24.57218772 24.3556493 -24.57218772 24.3556493 -25.44613838 14.56740189 C-24.93267622 8.81662562 -22.87546461 5.52142834 -18.63363838 1.75490189 C-12.91314307 -3.02472249 -6.7190286 -3.03441346 0 0 Z " fill="#FEFEFE" transform="translate(120.13363838195801,89.93259811401367)"/>
<path d="M0 0 C7.8712528 6.74678812 7.8712528 6.74678812 11.02001953 9.93823242 C11.72409943 10.64884323 12.42817932 11.35945404 13.15359497 12.09159851 C13.88923676 12.83867569 14.62487854 13.58575287 15.3828125 14.35546875 C16.97773091 15.96302326 18.57278707 17.57044111 20.16796875 19.17773438 C22.65607734 21.69071913 25.14254856 24.2052832 27.62646484 26.72241211 C30.04085194 29.16699687 32.4614165 31.60532905 34.8828125 34.04296875 C35.62250275 34.79611862 36.36219299 35.54926849 37.1242981 36.32524109 C40.5320498 39.74949374 43.63264962 42.80241264 48 45 C46.61781591 49.14655227 43.83611877 50.13650277 40.1875 52.125 C39.48625 52.51316895 38.785 52.90133789 38.0625 53.30126953 C9.12684239 69 9.12684239 69 0 69 C0 46.23 0 23.46 0 0 Z " fill="#FEFEFE" transform="translate(327,401)"/>
<path d="M0 0 C0 22.77 0 45.54 0 69 C-4.20187793 68.29968701 -6.86645479 67.82892789 -10.58203125 66.25 C-11.84478882 65.71475708 -11.84478882 65.71475708 -13.13305664 65.16870117 C-14.01727295 64.78302979 -14.90148926 64.3973584 -15.8125 64 C-16.73087646 63.60208252 -17.64925293 63.20416504 -18.59545898 62.79418945 C-24.68519239 60.11516965 -30.66737128 57.2712458 -36.5625 54.1875 C-37.25770752 53.82720703 -37.95291504 53.46691406 -38.66918945 53.09570312 C-42.36088311 51.11257331 -45.11900732 49.01464495 -48 46 C-46.90123535 45.0095166 -46.90123535 45.0095166 -45.78027344 43.99902344 C-35.94958619 35.06643749 -26.59862493 25.68205932 -17.25 16.25 C-14.195551 13.1690345 -11.137831 10.09136872 -8.078125 7.015625 C-7.3803595 6.30956116 -6.68259399 5.60349731 -5.96368408 4.8760376 C-5.32501404 4.23406433 -4.68634399 3.59209106 -4.02832031 2.93066406 C-3.46574524 2.36285217 -2.90317017 1.79504028 -2.32354736 1.21002197 C-1 0 -1 0 0 0 Z " fill="#FEFEFE" transform="translate(185,401)"/>
<path d="M0 0 C5.01142727 4.38268732 7.90803963 9.59891155 11.125 15.375 C11.64964844 16.29539063 12.17429687 17.21578125 12.71484375 18.1640625 C15.48101383 23.06613606 17.76499756 27.7849943 20 33 C3.5 33 -13 33 -30 33 C-26.4920953 28.90744452 -23.24294991 25.12220469 -19.43359375 21.40625 C-18.61826172 20.60316406 -17.80292969 19.80007812 -16.96289062 18.97265625 C-15.27730141 17.32226495 -13.58979463 15.67382987 -11.90039062 14.02734375 C-7.4099062 9.59730132 -3.46727405 5.27536174 0 0 Z " fill="#FDFDFD" transform="translate(441,128)"/>
<path d="M0 0 C2.83711531 2.75114212 5.50108879 5.55651266 8.0625 8.56640625 C12.44636136 13.60073146 17.18342865 18.25573392 21.9375 22.9375 C23.65718872 24.63184327 25.37476647 26.32833277 27.08984375 28.02734375 C27.84128662 28.76718506 28.59272949 29.50702637 29.36694336 30.26928711 C31 32 31 32 31 33 C14.5 33 -2 33 -19 33 C-9.74759615 14.49519231 -9.74759615 14.49519231 -6.125 8.625 C-5.56039062 7.68527344 -5.56039062 7.68527344 -4.984375 6.7265625 C-3.47311877 4.2399565 -2.06520847 2.06520847 0 0 Z " fill="#FDFDFD" transform="translate(70,128)"/>
</svg>
