<?xml version="1.0" encoding="UTF-8"?>
<svg version="1.1" xmlns="http://www.w3.org/2000/svg" width="512" height="512">
<path d="M0 0 C0.9178125 0.18224121 1.835625 0.36448242 2.78125 0.55224609 C9.23280257 1.86381342 15.62290118 3.36644516 22 5 C22.74411133 5.18788086 23.48822266 5.37576172 24.25488281 5.56933594 C42.65908008 10.30763546 60.28462264 18.02857176 77 27 C77.58652344 27.31259766 78.17304688 27.62519531 78.77734375 27.94726562 C99.97866723 39.35065008 118.67979977 54.37866461 136 71 C136.89460938 71.85335937 137.78921875 72.70671875 138.7109375 73.5859375 C144.63261161 79.36184732 149.89360255 85.49855582 155 92 C155.79148437 92.98613281 156.58296875 93.97226563 157.3984375 94.98828125 C164.20670055 103.61136521 170.24718802 112.64304268 176 122 C176.59361328 122.96413818 176.59361328 122.96413818 177.19921875 123.94775391 C200.68032594 162.60542996 211.4880365 207.68669302 211.3125 252.625 C211.30976578 254.07933441 211.30976578 254.07933441 211.30697632 255.56304932 C211.26163492 269.89240966 210.85197455 283.91239418 208 298 C207.81775879 298.9178125 207.63551758 299.835625 207.44775391 300.78125 C206.13618658 307.23280257 204.63355484 313.62290118 203 320 C202.81211914 320.74411133 202.62423828 321.48822266 202.43066406 322.25488281 C189.49999017 372.47937195 157.54514046 419.85991473 117 452 C115.92761957 452.87406123 114.85602952 453.7490929 113.78515625 454.625 C73.33762358 487.44746728 19.65434281 508.92763564 -32.79296875 509.203125 C-33.69337387 509.21018463 -34.59377899 509.21724426 -35.52146912 509.22451782 C-73.06566405 509.45209392 -73.06566405 509.45209392 -90 506 C-91.53914063 505.69400879 -91.53914063 505.69400879 -93.109375 505.38183594 C-114.65689094 500.99701857 -135.21350459 494.62135705 -155 485 C-155.89477051 484.56558594 -156.78954102 484.13117188 -157.71142578 483.68359375 C-183.32102133 471.10436365 -205.45709929 454.71400089 -226 435 C-226.89460938 434.14664062 -227.78921875 433.29328125 -228.7109375 432.4140625 C-234.63261161 426.63815268 -239.89360255 420.50144418 -245 414 C-245.79148438 413.01386719 -246.58296875 412.02773438 -247.3984375 411.01171875 C-254.20670055 402.38863479 -260.24718802 393.35695732 -266 384 C-266.39574219 383.35724121 -266.79148437 382.71448242 -267.19921875 382.05224609 C-287.97922644 347.84147405 -300.99234812 305.38139429 -301.203125 265.20703125 C-301.21013931 264.30644485 -301.21715363 263.40585846 -301.22438049 262.47798157 C-301.24177809 259.58943619 -301.24823227 256.70109584 -301.25 253.8125 C-301.25101212 252.33194122 -301.25101212 252.33194122 -301.25204468 250.82147217 C-301.23631228 236.35031441 -300.87100014 222.23005389 -298 208 C-297.82307617 207.09813965 -297.64615234 206.1962793 -297.46386719 205.26708984 C-293.24747978 184.2543336 -286.99043367 164.45438684 -278 145 C-277.50113281 143.9174292 -277.50113281 143.9174292 -276.9921875 142.81298828 C-266.95259718 121.30030923 -253.63225753 101.80045047 -238 84 C-237.24976563 83.13761719 -236.49953125 82.27523437 -235.7265625 81.38671875 C-226.5673724 71.02063176 -216.91531227 61.51484941 -206 53 C-205.01644531 52.21109375 -204.03289062 51.4221875 -203.01953125 50.609375 C-194.42081954 43.77287174 -185.35396507 37.75097229 -176 32 C-175.35724121 31.60425781 -174.71448242 31.20851562 -174.05224609 30.80078125 C-148.25060067 15.12857164 -119.45627251 5.8560994 -90 0 C-88.6696875 -0.27118652 -88.6696875 -0.27118652 -87.3125 -0.54785156 C-59.84272777 -5.87859826 -27.39627653 -5.54625707 0 0 Z M-92 32 C-92.94633301 32.21430664 -93.89266602 32.42861328 -94.86767578 32.64941406 C-114.52804419 37.26944933 -133.20789625 44.48799527 -151 54 C-151.64066406 54.34015137 -152.28132812 54.68030273 -152.94140625 55.03076172 C-156.6405499 56.99709944 -160.32604709 58.98687512 -164 61 C-161.60749978 63.49218773 -159.10540149 65.78196595 -156.48046875 68.02172852 C-151.36403296 72.48550599 -146.59811064 77.27676687 -141.8125 82.08984375 C-140.86008388 83.04412993 -139.90744305 83.99819188 -138.95458984 84.95204163 C-136.47333075 87.4370797 -133.99509209 89.92510796 -131.51751709 92.41381836 C-128.97837515 94.96327496 -126.43632354 97.50982688 -123.89453125 100.05664062 C-118.92687118 105.03495631 -113.96240314 110.01644371 -109 115 C-108.34 114.67 -107.68 114.34 -107 114 C-106.34778388 111.89512069 -105.77899333 109.7641748 -105.25 107.625 C-101.99963135 95.8855733 -96.56215487 87.59251712 -88 79 C-87.45859375 78.43539062 -86.9171875 77.87078125 -86.359375 77.2890625 C-74.43866244 65.91020051 -58.13955611 62.49416573 -42.2722168 62.57788086 C-24.87775352 63.02859119 -11.25575912 69.78754745 1 82 C1.56460938 82.54140625 2.12921875 83.0828125 2.7109375 83.640625 C10.40350429 91.69950449 14.70842093 103.30596434 17 114 C20.08265272 114.32112592 20.08265272 114.32112592 22.14265442 112.20465088 C23.38458809 110.94367584 23.38458809 110.94367584 24.65161133 109.65722656 C25.11058304 109.19548035 25.56955475 108.73373413 26.04243469 108.25799561 C27.56255907 106.72555893 29.07200577 105.1830081 30.58203125 103.640625 C31.63873863 102.57324008 32.69626102 101.50666145 33.75456238 100.44085693 C36.54510585 97.62748919 39.32742039 94.80613919 42.10723877 91.98217773 C46.54444116 87.47493682 50.98885928 82.97493041 55.44281578 78.4842453 C56.99269263 76.91775137 58.53593643 75.34493156 60.07881165 73.77154541 C61.03900539 72.80087957 61.99945672 71.83046845 62.96020508 70.86035156 C64.20571892 69.59460297 64.20571892 69.59460297 65.47639465 68.30328369 C68.18604268 65.83019965 70.90439255 63.95561678 74 62 C47.58190496 39.18437247 1.16573126 28.08796402 -33.0546875 27.76171875 C-33.9054184 27.7519249 -34.75614929 27.74213104 -35.63265991 27.73204041 C-54.75981471 27.55734284 -73.25274364 27.74176407 -92 32 Z M-203.4375 93.125 C-205.6187337 97.52523768 -205.96803992 102.21674392 -205 107 C-199.40034826 118.19477815 -190.16666404 127.35262393 -181.6875 136.4375 C-181.2106929 136.95037064 -180.7338858 137.46324127 -180.24263 137.99165344 C-168.67626459 150.33459494 -158.11571703 160.1663698 -140.3457489 161.05955505 C-130.13277031 161.11884142 -120.01467498 159.93370041 -110 158 C-113.91212991 153.32435331 -117.97170609 148.87593215 -122.27734375 144.56152344 C-122.87330353 143.96059875 -123.46926331 143.35967407 -124.08328247 142.74053955 C-126.03195082 140.77740781 -127.9843656 138.81806289 -129.9375 136.859375 C-130.60852753 136.1855201 -131.27955505 135.51166519 -131.97091675 134.81739044 C-135.51534357 131.25804283 -139.06258234 127.70152713 -142.61230469 124.14746094 C-146.27071894 120.48354286 -149.9197487 116.81042442 -153.56669617 113.1350975 C-156.38240495 110.30075478 -159.2048093 107.47315219 -162.02908325 104.6473465 C-163.37753598 103.29587331 -164.72349462 101.9419067 -166.06686401 100.58538055 C-167.94510247 98.69005081 -169.83261877 96.80445236 -171.72265625 94.92089844 C-172.27140411 94.36293579 -172.82015198 93.80497314 -173.38552856 93.23010254 C-177.87144381 88.79211541 -182.39217702 85.5731083 -188.9375 85.5625 C-195.57573729 85.80207548 -199.2711877 87.78357397 -203.4375 93.125 Z M80.05493164 96.58862305 C79.40042023 97.24109009 78.74590881 97.89355713 78.07156372 98.5657959 C75.92710774 100.70726266 73.79354003 102.85922604 71.66015625 105.01171875 C70.16858857 106.50634598 68.67642771 108.00038147 67.18370056 109.49385071 C64.06667968 112.61546216 60.95462075 115.74190558 57.84643555 118.87231445 C53.85268956 122.89446459 49.85020283 126.90777228 45.84446049 130.91797161 C42.76860292 133.99797329 39.69558716 137.08079604 36.6236248 140.16468239 C35.14761952 141.64640094 33.6711342 143.12764145 32.19417 144.60840416 C30.1398982 146.66950852 28.08905882 148.73396267 26.03930664 150.79956055 C25.42380447 151.41618057 24.80830231 152.0328006 24.17414856 152.66810608 C21.33068766 154.96838937 21.33068766 154.96838937 20 158 C35.79078081 161.04898954 55.68375682 164.57728199 70.26385498 156.10296631 C78.21110475 150.39843576 85.04191517 143.58572689 91.6875 136.4375 C92.1652739 135.92559616 92.64304779 135.41369232 93.13529968 134.88627625 C108.34903298 120.40884934 108.34903298 120.40884934 115.5 102 C115.25918309 96.88846688 114.15401689 94.04361139 111 90 C106.23012742 86.27949939 102.6076142 85.54746861 96.625 85.46875 C89.67360531 86.87557988 84.85579785 91.71418866 80.05493164 96.58862305 Z M-71 105 C-77.28494814 113.7082168 -78.54481587 122.62174039 -77 133 C-74.19181436 141.68074228 -69.36255301 148.88337207 -61.42578125 153.49609375 C-52.22385939 158.02646811 -43.84471714 159.27653929 -34 156 C-24.84399651 151.81948942 -17.4450633 145.15014756 -13.66015625 135.6796875 C-11.6023262 127.32660219 -11.90381129 118.09976987 -15.61328125 110.27734375 C-20.47451239 102.2939698 -26.87119394 96.33114966 -35.8515625 93.39453125 C-49.84005541 90.82573528 -61.68349325 94.2105979 -71 105 Z M-231 125 C-231.7930206 126.13291389 -232.53571608 127.30108234 -233.2578125 128.48046875 C-233.71567139 129.22683594 -234.17353027 129.97320312 -234.64526367 130.7421875 C-235.13357666 131.54914063 -235.62188965 132.35609375 -236.125 133.1875 C-236.61911377 134.00089844 -237.11322754 134.81429687 -237.62231445 135.65234375 C-245.13210368 146.31462029 -245.13210368 146.31462029 -249 158 C-233.16 158 -217.32 158 -201 158 C-206.02041895 152.13004864 -206.02041895 152.13004864 -211.34765625 146.66015625 C-212.11787109 145.90669922 -212.88808594 145.15324219 -213.68164062 144.37695312 C-215.26894117 142.83392512 -216.86009722 141.29485336 -218.45507812 139.75976562 C-223.16044264 135.14117229 -226.6783304 130.69151574 -230 125 C-230.33 125 -230.66 125 -231 125 Z M140 125 C139.20610919 126.23711072 138.43838187 127.49099705 137.6796875 128.75 C133.37203318 135.32091084 127.7290577 140.55885096 122.125 146 C120.52241697 147.56749348 118.92205229 149.13716917 117.32418823 150.70947266 C115.89241145 152.11664028 114.4544215 153.51747779 113.01611328 154.91796875 C110.88405948 156.63669782 110.88405948 156.63669782 111 158 C126.84 158 142.68 158 159 158 C157.70325748 154.10977245 156.74044082 151.22939529 154.828125 147.79296875 C154.41361084 147.04515137 153.99909668 146.29733398 153.57202148 145.52685547 C153.13575439 144.75486816 152.6994873 143.98288086 152.25 143.1875 C151.80406494 142.39230957 151.35812988 141.59711914 150.89868164 140.77783203 C146.35236075 132.62663094 146.35236075 132.62663094 141 125 C140.67 125 140.34 125 140 125 Z M-259.9375 193.4375 C-263.70594459 198.11950692 -264.45744047 201.5197308 -264.30859375 207.46484375 C-263.80159056 211.62997123 -262.60255713 213.66338829 -260 217 C-254.32357763 221.41200601 -248.60824185 222.12205079 -241.62390137 222.13803101 C-239.69338173 222.14621101 -239.69338173 222.14621101 -237.72386169 222.15455627 C-236.30484014 222.1556759 -234.88581853 222.15672645 -233.46679688 222.15771484 C-231.96680046 222.16238594 -230.46680544 222.16752999 -228.96681213 222.17311096 C-225.74094273 222.18437066 -222.51508244 222.19281493 -219.28919983 222.19923019 C-214.18784156 222.20992719 -209.08654918 222.23017512 -203.98522949 222.25234985 C-189.48058073 222.31422172 -174.97593664 222.36831928 -160.47119141 222.40136719 C-152.45710761 222.41970655 -144.44313501 222.44862962 -136.42913294 222.4893719 C-132.18966036 222.51044521 -127.95032789 222.5258997 -123.71080017 222.52817917 C-119.72490384 222.53032499 -115.7392997 222.54618731 -111.75349236 222.57256889 C-110.29140267 222.5797646 -108.8292776 222.58186153 -107.36717415 222.57846642 C-105.37012851 222.57456998 -103.3730739 222.59078944 -101.37609863 222.60800171 C-100.25892708 222.61131186 -99.14175552 222.614622 -97.99073029 222.61803246 C-94.60329277 223.05066632 -92.73839793 223.99341759 -90 226 C-85.37992792 232.10509525 -85.85418215 239.1825615 -85.86869812 246.49549866 C-85.86552455 247.91897296 -85.86552455 247.91897296 -85.86228687 249.37120432 C-85.85630138 252.54704174 -85.85728597 255.72283927 -85.8581543 258.89868164 C-85.85512194 261.17713997 -85.85160028 263.45559769 -85.84762573 265.73405457 C-85.83974393 270.6383731 -85.8345946 275.54268439 -85.83133507 280.44700813 C-85.82542296 288.19902395 -85.80888202 295.95099391 -85.78999329 303.70298767 C-85.78365625 306.35689256 -85.77733063 309.01079747 -85.77101612 311.66470242 C-85.76943236 312.32784786 -85.7678486 312.9909933 -85.76621684 313.67423405 C-85.74829514 321.21584366 -85.73206009 328.75745633 -85.71704102 336.29907227 C-85.71566514 336.98819033 -85.71428927 337.6773084 -85.71287171 338.38730883 C-85.69092325 349.56417166 -85.68018006 360.74102315 -85.67267027 371.91790373 C-85.66460125 383.39797062 -85.64105622 394.87791753 -85.6047166 406.35793394 C-85.58492373 412.80176439 -85.57256227 419.24542438 -85.57755089 425.68928719 C-85.58218304 431.74601679 -85.56847026 437.80242268 -85.54053879 443.85908699 C-85.53360389 446.08392271 -85.53352499 448.30879173 -85.54073906 450.53362656 C-85.54958197 453.56663466 -85.53400737 456.59856469 -85.51225281 459.63148499 C-85.52491661 460.9575496 -85.52491661 460.9575496 -85.53783625 462.31040341 C-85.48328448 466.41229329 -85.3391311 468.47021795 -83.0773592 472.00350094 C-79.66111875 475.28676598 -77.92190823 475.91078307 -73.125 476.375 C-68.82111747 476.27061479 -66.32050941 474.76709117 -63 472 C-59.94877691 467.42316536 -59.87503239 463.33562018 -59.86196899 457.9276123 C-59.85651566 456.70791245 -59.85106232 455.48821259 -59.84544373 454.23155212 C-59.84432412 452.88809209 -59.84327357 451.54463201 -59.84228516 450.20117188 C-59.83761368 448.7799921 -59.83246956 447.35881382 -59.82688904 445.93763733 C-59.8156321 442.88201539 -59.80718651 439.82640308 -59.80076981 436.77076721 C-59.79006963 431.93824656 -59.76982089 427.10579538 -59.74765015 422.27331543 C-59.68578886 408.53331677 -59.63168243 394.79332311 -59.59863281 381.05322266 C-59.58029115 373.46103702 -59.55136539 365.8689687 -59.5106281 358.2768693 C-59.489559 354.26096059 -59.47410089 350.24519968 -59.47182083 346.22923279 C-59.46967439 342.45344808 -59.45380582 338.67797163 -59.42743111 334.90228081 C-59.42023782 333.51759478 -59.41813731 332.1328714 -59.42153358 330.74817085 C-59.42543252 328.85622154 -59.40920461 326.96426279 -59.39199829 325.0723877 C-59.38868814 324.01421089 -59.385378 322.95603409 -59.38196754 321.86579132 C-58.8012981 317.50919746 -57.13882844 314.88105309 -53.6875 312.2109375 C-50.58803271 310.8143752 -48.3894878 310.59906004 -45 310.625 C-43.989375 310.61726563 -42.97875 310.60953125 -41.9375 310.6015625 C-38.51532431 311.06574059 -36.72646441 311.8906745 -34 314 C-31.25355719 317.78414056 -30.62356641 320.42289187 -30.61473083 325.06565857 C-30.60508301 326.28391327 -30.59543518 327.50216797 -30.585495 328.75733948 C-30.58985826 330.09921352 -30.59449068 331.4410867 -30.59936523 332.78295898 C-30.5936202 334.20252053 -30.5865364 335.62207719 -30.57821655 337.04162598 C-30.56311988 340.0940192 -30.55732776 343.14623771 -30.55874443 346.19866753 C-30.56078017 351.02732414 -30.54119731 355.85574629 -30.51856995 360.68434143 C-30.47760901 370.06385637 -30.45899513 379.44335279 -30.44239807 388.82293701 C-30.4200385 400.75835304 -30.386464 412.69371477 -30.33519894 424.62904221 C-30.31530074 429.42686657 -30.30569886 434.22456819 -30.30424678 439.02243221 C-30.30149191 442.00985726 -30.29065179 444.9972148 -30.27773666 447.98461151 C-30.27346551 449.36727585 -30.27259122 450.74995561 -30.27541161 452.13262367 C-30.27882673 454.02420724 -30.26886273 455.91580071 -30.25828552 457.80735779 C-30.25583407 459.3932403 -30.25583407 459.3932403 -30.25333309 461.01116085 C-29.71724446 467.33596698 -27.75532763 470.83908832 -23 475 C-19.78734554 476.60632723 -16.48478188 476.47931944 -13 476 C-9.24787724 473.98497111 -7.36355905 472.54533858 -5 469 C-4.80206557 465.93196398 -4.72359111 462.95423584 -4.73498535 459.88545227 C-4.73060408 458.94114937 -4.72622281 457.99684648 -4.72170877 457.02392834 C-4.70934385 453.84573863 -4.71119996 450.667713 -4.71289062 447.48950195 C-4.70686914 445.21635187 -4.6999456 442.94320402 -4.69218445 440.6700592 C-4.67727068 435.7673254 -4.66853998 430.86463251 -4.66447449 425.96187782 C-4.65777262 418.20925939 -4.63603077 410.45672854 -4.61193848 402.70414734 C-4.57956662 391.83345256 -4.55272848 380.9627634 -4.53173828 370.09204102 C-4.53040329 369.40201338 -4.5290683 368.71198574 -4.52769285 368.00104817 C-4.51826826 363.10486581 -4.50910673 358.20868296 -4.5 353.3125 C-4.48960862 347.72827112 -4.47908927 342.14404251 -4.46826172 336.55981445 C-4.46693098 335.87214287 -4.46560023 335.1844713 -4.46422917 334.47596119 C-4.44177908 322.99939829 -4.41149104 311.52287277 -4.37586927 300.04634255 C-4.3525222 292.34048079 -4.33877974 284.63467956 -4.33237457 276.92878592 C-4.32643296 272.13087133 -4.31233336 267.3330057 -4.29603004 262.5351162 C-4.29015737 260.31153881 -4.28768114 258.08794944 -4.28886986 255.86436462 C-4.29003099 252.82596111 -4.27899623 249.78783211 -4.26501465 246.74946594 C-4.26831362 245.87211503 -4.2716126 244.99476411 -4.27501154 244.09082681 C-4.22471127 237.45450424 -3.95846787 231.30119974 0.5 226.0625 C4.26489651 222.95646038 6.15890949 222.87304303 10.98841858 222.86196899 C12.26552704 222.85651566 13.5426355 222.85106232 14.85844421 222.84544373 C16.28201289 222.84432385 17.70558162 222.84327335 19.12915039 222.84228516 C20.62221425 222.8376179 22.11527669 222.83247448 23.6083374 222.82688904 C26.8293399 222.81559654 30.05033308 222.80716772 33.27134895 222.80076981 C38.36936518 222.79009479 43.46731491 222.76984925 48.56529236 222.74765015 C63.06424905 222.6857157 77.5632027 222.63177443 92.06225586 222.59863281 C100.06573524 222.58025816 108.06910403 222.55128285 116.07250208 222.5106281 C120.30655739 222.48959844 124.54047354 222.47410665 128.77458382 222.47182083 C132.76291397 222.46966534 136.75095485 222.45370467 140.73919678 222.42743111 C142.19799133 222.42026969 143.65682106 222.41812173 145.1156292 222.42153358 C158.44367171 222.51507072 158.44367171 222.51507072 169.9375 216.5625 C173.70594459 211.88049308 174.45744047 208.4802692 174.30859375 202.53515625 C173.80159056 198.37002877 172.60255713 196.33661171 170 193 C164.13539294 188.44172721 158.27269543 187.87589281 151.0692482 187.86857224 C150.03641935 187.86549328 150.03641935 187.86549328 148.98272526 187.86235213 C146.67045201 187.85668789 144.35823844 187.85813867 142.04595947 187.85955811 C140.37338879 187.85697415 138.70081872 187.8539609 137.0282495 187.8505547 C132.42787971 187.84248518 127.82752552 187.84069516 123.22714949 187.83995724 C118.26723277 187.83810662 113.30732415 187.83055927 108.34741211 187.82382202 C97.5003435 187.81023885 86.65327859 187.8042141 75.80620289 187.79981136 C69.0341897 187.79704911 62.26217794 187.7928118 55.49016571 187.78830719 C36.74283564 187.77611491 17.99550671 187.76581528 -0.75182724 187.7624321 C-1.95173774 187.76221253 -3.15164825 187.76199297 -4.38791968 187.76176675 C-5.59070893 187.76154847 -6.79349818 187.76133019 -8.03273559 187.7611053 C-10.47006591 187.76066183 -12.90739624 187.76021527 -15.34472656 187.75976562 C-17.15822851 187.75943348 -17.15822851 187.75943348 -19.00836685 187.75909463 C-38.60202776 187.75514593 -58.19565149 187.73768953 -77.78929803 187.7144061 C-97.90259198 187.69069793 -118.01586727 187.6782305 -138.12917542 187.67706418 C-149.42337458 187.67614716 -160.7175253 187.67038793 -172.01171112 187.65224457 C-181.62815484 187.63685086 -191.24453513 187.63171885 -200.86098883 187.63998267 C-205.76738193 187.64389164 -210.6736473 187.64294741 -215.58002472 187.62892532 C-220.07319776 187.61620155 -224.56614686 187.61737055 -229.05931953 187.62951604 C-230.68314393 187.63147566 -232.30698412 187.62838234 -233.93078634 187.61967167 C-247.85697 187.36375961 -247.85697 187.36375961 -259.9375 193.4375 Z M-270 247 C-271.46469494 295.00128196 -258.15109308 341.25177815 -231 381 C-230.42458182 380.27128252 -229.84916365 379.54256504 -229.25630856 378.79176521 C-222.59963973 370.55536668 -215.18676072 363.07919963 -207.61499023 355.69189453 C-206.6084193 354.70531307 -205.60218865 353.71838432 -204.5962677 352.73114014 C-202.99972382 351.16440867 -201.4029193 349.59795027 -199.80503166 348.0325892 C-195.85662741 344.16450504 -191.91866032 340.28601819 -187.98658752 336.40133667 C-187.41232369 335.83401577 -186.83805986 335.26669487 -186.2463941 334.68218243 C-183.88473914 332.34869524 -181.52341725 330.0148713 -179.16224182 327.6808989 C-172.48587558 321.08231514 -165.79988706 314.49416922 -159.0847168 307.93505859 C-153.72573672 302.70048314 -148.38841246 297.44488748 -143.07532841 292.16372001 C-140.27048309 289.37731356 -137.45603104 286.60252776 -134.61489677 283.85309219 C-131.9463229 281.2701958 -129.3075028 278.66023158 -126.68830681 276.0273056 C-125.2699304 274.6161153 -123.82191818 273.23490594 -122.37307739 271.85501099 C-117.70859432 267.10746928 -115.45206496 264.14807923 -115.42372131 257.33956909 C-115.56948898 255.55532131 -115.74511253 253.77195393 -116 252 C-116.72076847 251.99853344 -117.44153694 251.99706688 -118.18414688 251.99555588 C-135.76347252 251.95842167 -153.34258883 251.8993197 -170.92175674 251.81609726 C-179.42310125 251.77637429 -187.92435409 251.74394769 -196.42578125 251.72900391 C-203.84004571 251.71595229 -211.25410791 251.68889867 -218.66825843 251.64538693 C-222.59003779 251.62285056 -226.51156842 251.60708458 -230.43341827 251.60811615 C-234.1337432 251.60886744 -237.83351994 251.59073138 -241.53370285 251.55883217 C-243.52091418 251.54640873 -245.50821796 251.55336053 -247.49545288 251.56114197 C-255.66936269 251.46725811 -262.41701009 250.06280212 -270 247 Z M176.99826336 247.85580826 C169.1303376 251.12938987 162.17023836 251.57891016 153.71606445 251.54589844 C152.31543338 251.55465299 150.91481228 251.56514526 149.51420593 251.57722473 C145.74630147 251.60487566 141.97872669 251.6084941 138.21073556 251.60750484 C134.26022381 251.61065211 130.30985664 251.63630772 126.35942078 251.65948486 C118.89410302 251.69991036 111.42887232 251.72035377 103.96346205 251.73345876 C95.45784975 251.7493746 86.95238462 251.78780932 78.44685805 251.82805204 C60.96461606 251.91026671 43.48239796 251.96447369 26 252 C25.15458592 257.401773 24.80034205 262.03743426 27.72710228 266.82543182 C30.32876564 269.78225941 33.07659337 272.52903539 35.92651367 275.24121094 C36.9948774 276.30126647 38.06057609 277.36401363 39.12380981 278.42921448 C42.00516674 281.30123826 44.92165176 284.1349997 47.84561324 286.9635458 C50.90730701 289.93867151 53.9335546 292.94941091 56.9634552 295.95684814 C62.70720602 301.64789594 68.47955366 307.30893968 74.26399356 312.95859647 C82.74163187 321.24073732 91.18179117 329.56093673 99.61443806 337.8888588 C100.23460259 338.5013151 100.85476713 339.1137714 101.49372452 339.74478698 C102.73090534 340.96667087 103.96798657 342.1886556 105.20496541 343.41074395 C108.81463449 346.97482366 112.43467102 350.52792989 116.06418741 354.07179308 C118.32607033 356.28238644 120.58194818 358.49904217 122.83670425 360.71690178 C123.87840635 361.73872136 124.92276629 362.75784002 125.97005272 363.77393532 C131.52317783 369.16372507 136.24757625 374.20627962 140 381 C160.97052411 355.62195423 172.29725671 320.91397711 178 289 C178.3403125 287.10314453 178.3403125 287.10314453 178.6875 285.16796875 C180.59512947 272.51667608 180.1898855 259.7603055 180 247 C178.79041399 246.93448127 178.79041399 246.93448127 176.99826336 247.85580826 Z M-120.32699585 311.18655396 C-121.03923813 311.89308609 -121.75148041 312.59961823 -122.48530579 313.32756042 C-123.27181015 314.11294693 -124.05831451 314.89833344 -124.86865234 315.70751953 C-125.69303299 316.52693527 -126.51741364 317.34635101 -127.36677551 318.19059753 C-130.1093448 320.9184914 -132.84794097 323.65032937 -135.5859375 326.3828125 C-137.00390377 327.79648223 -138.42187028 329.21015171 -139.83987868 330.62377918 C-143.79447742 334.56655174 -147.74692305 338.51147037 -151.69733369 342.45843899 C-156.80474582 347.56137679 -161.91861044 352.65772778 -167.03827131 357.74837601 C-170.99436409 361.68282741 -174.94464919 365.62304878 -178.89060366 369.56766784 C-181.24739306 371.92341034 -183.60724793 374.2759328 -185.97172165 376.62396622 C-188.61246229 379.24765687 -191.24358074 381.88064345 -193.87255859 384.51611328 C-195.04624245 385.67597496 -195.04624245 385.67597496 -196.24363708 386.85926819 C-201.24114516 391.89554571 -205.42540255 396.47337247 -205.4375 403.9375 C-205.2508686 409.108745 -204.19034303 411.90981663 -201 416 C-196.23012742 419.72050061 -192.6076142 420.45253139 -186.625 420.53125 C-180.32464839 419.25617884 -175.30607493 414.84992511 -170.60571289 410.69213867 C-169.71198707 409.91071613 -169.71198707 409.91071613 -168.80020618 409.11350727 C-161.06666303 402.30500811 -153.52353324 395.29247987 -146.0625 388.1875 C-145.3477161 387.50877964 -144.63293221 386.83005928 -143.89648819 386.13077164 C-121.21527165 365.33924946 -121.21527165 365.33924946 -111.74980164 337.15510559 C-111.6780374 327.23639332 -113.24978507 317.50748954 -116 308 C-117.86835379 308 -119.0785828 309.94411133 -120.32699585 311.18655396 Z M26 308 C21.69249089 322.89105358 18.83878745 340.56355121 26 355 C33.81566757 367.62436258 45.37552433 378.03972247 56.0625 388.1875 C56.77768673 388.86855679 57.49287346 389.54961357 58.22973251 390.25130844 C65.55905383 397.20729418 72.9984175 404.04075636 80.60571289 410.69213867 C81.15092181 411.17441264 81.69613073 411.65668661 82.25786114 412.15357494 C88.17119198 417.25082183 93.53914161 420.75727448 101.5703125 420.37890625 C106.98970993 419.53375906 110.03230115 417.24063955 113.4375 412.875 C115.6187337 408.47476232 115.96803992 403.78325608 115 399 C111.95518857 392.74113795 107.77321328 388.35782306 102.85083008 383.49438477 C102.03255234 382.67406265 101.2142746 381.85374054 100.37120056 381.00856018 C97.6778373 378.31220041 94.97391702 375.62670689 92.26953125 372.94140625 C90.39375742 371.06869096 88.51853221 369.19544118 86.64396667 367.32151794 C82.72248365 363.40371711 78.79542478 359.49158024 74.86450195 355.58325195 C69.81298903 350.56071494 64.77087013 345.52885439 59.73160267 340.49403477 C55.86440803 336.63038559 51.99379087 332.77017481 48.12241173 328.91071892 C46.26110428 327.05512658 44.4002763 325.19905317 42.53992653 323.34250069 C39.94956497 320.75897094 37.35584465 318.17886572 34.76098633 315.59985352 C33.98540375 314.82538879 33.20982117 314.05092407 32.41073608 313.25299072 C31.70835312 312.5563179 31.00597015 311.85964508 30.28230286 311.14186096 C29.66897504 310.53150781 29.05564722 309.92115465 28.42373371 309.29230595 C27.19705339 307.8879827 27.19705339 307.8879827 26 308 Z M-118.63639832 400.52960205 C-119.69846245 401.60404572 -119.69846245 401.60404572 -120.78198242 402.70019531 C-121.58339157 403.50813538 -122.38480072 404.31607544 -123.210495 405.14849854 C-124.08333633 406.03277527 -124.95617767 406.917052 -125.85546875 407.828125 C-127.69321693 409.6785269 -129.53111228 411.52878265 -131.36914062 413.37890625 C-134.27702819 416.31048668 -137.18247835 419.24446197 -140.08520508 422.18115234 C-142.87827305 425.00630622 -145.67942533 427.82337806 -148.48046875 430.640625 C-149.34318893 431.51680481 -150.20590912 432.39298462 -151.09477234 433.29571533 C-155.16855845 437.38634533 -159.01345079 441.06608068 -164 444 C-159.84770422 447.58607363 -155.45122939 450.14425899 -150.625 452.6875 C-149.40804443 453.33017822 -149.40804443 453.33017822 -148.16650391 453.98583984 C-132.68577333 462.69208467 -132.68577333 462.69208467 -116 467 C-116 444.56 -116 422.12 -116 399 C-117.25157168 398.88618898 -117.25157168 398.88618898 -118.63639832 400.52960205 Z M26 399 C26 421.44 26 443.88 26 467 C39.09040808 462.54162403 39.09040808 462.54162403 51.6875 457.125 C52.37320068 456.79693359 53.05890137 456.46886719 53.76538086 456.13085938 C60.70192738 452.75896036 67.37729538 448.94633429 74 445 C71.57204018 442.47087519 69.02872861 440.14697331 66.36889648 437.86889648 C61.91641198 433.98494574 57.75008778 429.86036986 53.59765625 425.66015625 C52.83448593 424.89319931 52.07131561 424.12624237 51.28501892 423.33604431 C48.87504822 420.91396374 46.46838174 418.48864179 44.0625 416.0625 C40.86871277 412.84222663 37.67169679 409.62520999 34.47265625 406.41015625 C33.7373317 405.66653336 33.00200714 404.92291046 32.24440002 404.15675354 C31.56957077 403.47862106 30.89474152 402.80048859 30.19946289 402.10180664 C29.6040419 401.50114883 29.00862091 400.90049103 28.39515686 400.28163147 C27.19300713 398.88724842 27.19300713 398.88724842 26 399 Z " fill="#000000" transform="translate(301,3)"/>
</svg>
